<svg width="250" height="339" viewBox="0 0 250 339" fill="none" xmlns="http://www.w3.org/2000/svg">
<path d="M123.601 145.516H66.4727V33.3809H123.601V145.516Z" fill="#F2CB48"/>
<path d="M46.7476 289.553V338.132H36.9773V312.683L24.9652 327.72H21.7824L9.77028 312.683V338.132H0V289.553H3.18287L23.3759 315.361L43.5648 289.553H46.7476Z" fill="#0A17B7"/>
<path d="M65.0547 290.42H74.825V338.129H65.0547V290.42Z" fill="#0A17B7"/>
<path d="M102.865 335.745C98.9794 333.577 95.9178 330.602 93.676 326.817C91.43 323.036 90.3091 318.853 90.3091 314.274C90.3091 309.699 91.4425 305.517 93.7094 301.732C95.9763 297.95 99.0547 294.976 102.936 292.807C106.822 290.639 111.1 289.553 115.78 289.553C120.314 289.553 124.43 290.601 128.119 292.699C131.808 294.796 134.715 297.7 136.839 301.406L129.457 306.612C126.082 301.264 121.523 298.59 115.78 298.59C112.84 298.59 110.197 299.267 107.859 300.612C105.517 301.961 103.685 303.829 102.359 306.215C101.033 308.6 100.368 311.312 100.368 314.349C100.368 317.383 101.033 320.082 102.359 322.446C103.685 324.807 105.517 326.65 107.859 327.974C110.197 329.299 112.84 329.963 115.78 329.963C121.523 329.963 126.082 327.289 129.457 321.937L136.839 327.143C134.765 330.857 131.87 333.757 128.156 335.854C124.442 337.951 120.293 339 115.709 339C111.029 339 106.746 337.914 102.865 335.745Z" fill="#0A17B7"/>
<path d="M163.252 299.24H147.981V290.42H188.363V299.24H173.022V338.129H163.252V299.24Z" fill="#0A17B7"/>
<path d="M231.672 327.974C234.01 326.65 235.846 324.795 237.172 322.409C238.498 320.023 239.163 317.312 239.163 314.274C239.163 311.287 238.498 308.601 237.172 306.215C235.846 303.829 234.01 301.962 231.672 300.612C229.33 299.267 226.716 298.59 223.822 298.59C220.877 298.59 218.251 299.254 215.933 300.579C213.616 301.903 211.797 303.758 210.471 306.144C209.141 308.53 208.48 311.241 208.48 314.274C208.48 317.312 209.141 320.023 210.471 322.409C211.797 324.795 213.616 326.65 215.933 327.974C218.251 329.299 220.877 329.963 223.822 329.963C226.716 329.963 229.33 329.299 231.672 327.974ZM223.751 338.996C219.116 338.996 214.871 337.914 211.011 335.746C207.15 333.577 204.089 330.602 201.822 326.817C199.555 323.036 198.421 318.854 198.421 314.274C198.421 309.699 199.555 305.517 201.822 301.732C204.089 297.951 207.15 294.976 211.011 292.808C214.871 290.639 219.116 289.553 223.751 289.553C228.381 289.553 232.638 290.639 236.52 292.808C240.405 294.976 243.492 297.951 245.784 301.732C248.076 305.517 249.222 309.699 249.222 314.274C249.222 318.854 248.076 323.036 245.784 326.817C243.492 330.602 240.405 333.577 236.52 335.746C232.638 337.914 228.381 338.996 223.751 338.996Z" fill="#0A17B7"/>
<path d="M56.1779 145.518H0.00292969V132.645C0.00292969 117.149 12.5755 104.585 28.0883 104.585C43.6011 104.585 56.1779 117.149 56.1779 132.645V145.518Z" fill="#0A17B7"/>
<path d="M55.707 60.9715C55.707 76.2089 43.3436 88.5593 28.0901 88.5593C12.8366 88.5593 0.473145 76.2089 0.473145 60.9715C0.473145 45.7341 12.8366 33.3837 28.0901 33.3837C43.3436 33.3837 55.707 45.7341 55.707 60.9715Z" fill="#F2CB48"/>
<path d="M189.834 89.4505C189.834 104.688 177.471 117.038 162.218 117.038C146.964 117.038 134.601 104.688 134.601 89.4505C134.601 74.2131 146.964 61.8627 162.218 61.8627C177.471 61.8627 189.834 74.2131 189.834 89.4505Z" fill="#F2CB48"/>
<path d="M55.707 264.453H0.000488281V156.166H55.707V264.453Z" fill="#F2CB48"/>
<path d="M190.069 264.453H134.363V156.166H190.069V264.453Z" fill="#F7981A"/>
<path d="M77.2207 264.452H66.4717V156.165H77.2207C102.834 156.165 123.6 176.909 123.6 202.496V218.121C123.6 243.708 102.834 264.452 77.2207 264.452Z" fill="#0A17B7"/>
<path d="M249.854 145.516H200.831V33.3809H249.854V145.516Z" fill="#F2CB48"/>
<path d="M249.854 195.481H200.831V156.166H249.854V195.481Z" fill="#F2CB48"/>
<path d="M249.854 264.453H200.831V206.127H249.854V264.453Z" fill="#F2CB48"/>
<path d="M231.028 57.7388H219.665V41.7911H231.028V57.7388Z" fill="#F7981A"/>
<path d="M231.028 84.1943H219.665V68.2466H231.028V84.1943Z" fill="#F7981A"/>
<path d="M33.77 185.571H22.4062V169.623H33.77V185.571Z" fill="#F7981A"/>
<path d="M33.77 212.031H22.4062V196.083H33.77V212.031Z" fill="#F7981A"/>
<path d="M16.3441 6.08383V23.168H13.6422V12.6267L8.82396 18.9439H7.90799L3.06468 12.6016V23.168H0.362793V6.08383H1.30385L8.36807 15.4803L15.4281 6.08383H16.3441Z" fill="#0A17B7"/>
<path d="M33.4469 11.1004L30.6195 18.0528H36.2492L33.4469 11.1004ZM37.2195 20.3674H29.6492L28.453 23.1709H25.5713L32.9868 6.08258H33.907L41.3225 23.1709H38.4157L37.2195 20.3674Z" fill="#0A17B7"/>
<path d="M54.8196 3.58888C54.0626 2.80758 53.6862 1.77977 53.6862 0.505459V-8.96454e-05H55.8778V0.584841C55.8778 1.2784 56.0451 1.82991 56.3755 2.22682C56.7059 2.62374 57.1786 2.82429 57.7892 2.82429C58.3998 2.82429 58.8766 2.62792 59.2154 2.23936C59.5584 1.8508 59.7257 1.29511 59.7257 0.584841V-8.96454e-05H61.9424V0.505459C61.9424 1.77977 61.5618 2.80758 60.7964 3.58888C60.031 4.37018 59.0314 4.75874 57.7892 4.75874C56.5637 4.75874 55.5767 4.37018 54.8196 3.58888ZM64.6192 6.08319V23.1673H61.9173V11.4311L51.4946 23.4473H50.5493V6.36312H53.2512V18.0784L63.6781 6.08319H64.6192Z" fill="#0A17B7"/>
<path d="M81.6212 20.8019C82.5706 20.8019 83.3151 20.5554 83.8505 20.0624C84.3858 19.5736 84.6535 18.9176 84.6535 18.1029C84.6535 17.2882 84.3858 16.6322 83.8505 16.1434C83.3151 15.6504 82.5706 15.4039 81.6212 15.4039H78.1037V20.8019H81.6212ZM75.4019 6.3667H86.0044V8.78162H78.1037V13.085H81.7216C82.8467 13.085 83.8337 13.2981 84.6911 13.7243C85.5486 14.1463 86.2136 14.7396 86.682 15.4916C87.1463 16.2478 87.3805 17.1169 87.3805 18.1029C87.3805 19.0847 87.1463 19.9663 86.682 20.7393C86.2136 21.5122 85.5486 22.1097 84.6911 22.5317C83.8337 22.9578 82.8467 23.1709 81.7216 23.1709H75.4019V6.3667Z" fill="#0A17B7"/>
<path d="M110.653 6.36456L104.739 19.0701C104.262 20.1063 103.811 20.9293 103.376 21.5393C102.945 22.1493 102.426 22.6215 101.82 22.9515C101.217 23.2858 100.473 23.4487 99.5904 23.4487C99.0968 23.4487 98.5531 23.3568 97.9592 23.1688V20.8541C98.3691 20.921 98.8083 20.9544 99.2851 20.9544C99.8121 20.9544 100.276 20.85 100.674 20.6369C101.075 20.4238 101.435 20.0561 101.757 19.5297L95.2573 6.36456H98.2896L103.238 16.4964L107.826 6.36456H110.653Z" fill="#0A17B7"/>
<path d="M123.831 8.78287H118.172V6.36377H132.217V8.78287H126.533V23.168H123.831V8.78287Z" fill="#0A17B7"/>
<path d="M141.291 6.36475H143.993V13.0622H152.454V6.36475H155.156V23.1689H152.454V15.4813H143.993V23.1689H141.291V6.36475Z" fill="#0A17B7"/>
<path d="M172.031 20.7759C173.014 20.7759 173.783 20.5085 174.335 19.9737C174.888 19.4389 175.164 18.737 175.164 17.8721C175.164 17.0073 174.888 16.3095 174.335 15.7706C173.783 15.2358 173.014 14.9725 172.031 14.9725H168.668V20.7759H172.031ZM165.966 6.36572H168.668V12.5785H172.056C173.21 12.5785 174.235 12.8 175.126 13.2512C176.021 13.7024 176.711 14.3249 177.205 15.123C177.698 15.921 177.945 16.8401 177.945 17.8721C177.945 18.9083 177.698 19.8233 177.205 20.6255C176.711 21.4193 176.025 22.046 175.138 22.4973C174.256 22.9443 173.227 23.1699 172.056 23.1699H165.966V6.36572Z" fill="#0A17B7"/>
<path d="M198.64 20.1773C199.556 19.6425 200.28 18.8988 200.807 17.9504C201.334 17.002 201.597 15.9282 201.597 14.7416C201.597 13.5885 201.334 12.5356 200.807 11.583C200.28 10.6346 199.556 9.89088 198.64 9.35609C197.724 8.82129 196.696 8.5539 195.554 8.5539C194.399 8.5539 193.362 8.82129 192.446 9.35609C191.53 9.89088 190.811 10.6304 190.292 11.5705C189.773 12.5147 189.514 13.5718 189.514 14.7416C189.514 15.9282 189.773 17.002 190.292 17.9504C190.811 18.8988 191.53 19.6425 192.446 20.1773C193.362 20.7121 194.399 20.9795 195.554 20.9795C196.696 20.9795 197.724 20.7121 198.64 20.1773ZM191.083 22.3039C189.732 21.5394 188.665 20.4948 187.883 19.1704C187.101 17.8501 186.712 16.3794 186.712 14.7667C186.712 13.154 187.105 11.6875 187.896 10.363C188.686 9.03855 189.753 7.99404 191.095 7.22945C192.438 6.46486 193.918 6.08466 195.533 6.08466C197.126 6.08466 198.607 6.46486 199.966 7.22945C201.326 7.99404 202.4 9.03855 203.191 10.363C203.981 11.6875 204.375 13.154 204.375 14.7667C204.375 16.3794 203.981 17.8501 203.191 19.1704C202.4 20.4948 201.326 21.5394 199.966 22.3039C198.607 23.0685 197.126 23.4487 195.533 23.4487C193.918 23.4487 192.434 23.0685 191.083 22.3039Z" fill="#0A17B7"/>
<path d="M214.164 6.36475H224.562V8.78385H216.866V23.1689H214.164V6.36475Z" fill="#0A17B7"/>
<path d="M244.266 20.1773C245.182 19.6425 245.905 18.8988 246.432 17.9504C246.959 17.002 247.223 15.9282 247.223 14.7416C247.223 13.5885 246.959 12.5356 246.432 11.583C245.905 10.6346 245.182 9.89088 244.266 9.35609C243.35 8.82129 242.321 8.5539 241.179 8.5539C240.025 8.5539 238.988 8.82129 238.072 9.35609C237.156 9.89088 236.436 10.6304 235.918 11.5705C235.399 12.5147 235.14 13.5718 235.14 14.7416C235.14 15.9282 235.399 17.002 235.918 17.9504C236.436 18.8988 237.156 19.6425 238.072 20.1773C238.988 20.7121 240.025 20.9795 241.179 20.9795C242.321 20.9795 243.35 20.7121 244.266 20.1773ZM236.708 22.3039C235.357 21.5394 234.291 20.4948 233.508 19.1704C232.726 17.8501 232.337 16.3794 232.337 14.7667C232.337 13.154 232.731 11.6875 233.521 10.363C234.312 9.03855 235.378 7.99404 236.721 7.22945C238.063 6.46486 239.544 6.08466 241.158 6.08466C242.752 6.08466 244.232 6.46486 245.592 7.22945C246.951 7.99404 248.026 9.03855 248.816 10.363C249.607 11.6875 250 13.154 250 14.7667C250 16.3794 249.607 17.8501 248.816 19.1704C248.026 20.4948 246.951 21.5394 245.592 22.3039C244.232 23.0685 242.752 23.4487 241.158 23.4487C239.544 23.4487 238.059 23.0685 236.708 22.3039Z" fill="#0A17B7"/>
</svg>
