<svg version="1.2" xmlns="http://www.w3.org/2000/svg" viewBox="0 0 283 412" width="283" height="412">
	<title>bg-svg</title>
	<style>
		.s0 { fill: none;stroke: #f2cb48 } 
		.s1 { fill: #f7981a } 
		.s2 { fill: #0a17b7 } 
	</style>
	<path id="Layer" class="s0" d="m260.6 302.8c-45.5 93.5-157.9 132.3-251.3 86.8-93.5-45.5-132.3-157.9-86.8-251.3 45.5-93.5 157.9-132.3 251.3-86.8 93.5 45.5 132.3 157.9 86.8 251.3z"/>
	<path id="Layer" class="s1" d="m227.7 377.3c-13.3 0-24-10.8-24-24 0-13.3 10.7-24 24-24 13.2 0 24 10.7 24 24 0 13.2-10.8 24-24 24z"/>
	<path id="Layer" class="s2" d="m40 52c-7.7 0-14-6.3-14-14 0-7.7 6.3-14 14-14 7.7 0 14 6.3 14 14 0 7.7-6.3 14-14 14z"/>
</svg>