<svg width="526" height="139" viewBox="0 0 526 139" fill="none" xmlns="http://www.w3.org/2000/svg">
<path d="M167.04 39.2063H194.512L180.423 9.71521L167.04 39.2063ZM162.741 49.416H158.306V39.2063H161.962L179.622 1.06052H181.181L199.836 39.2063H203.337V49.416H198.902V43.1228H162.741V49.416Z" fill="#0A17B7"/>
<path d="M229.106 4.08998C225.776 4.08998 222.622 4.9025 219.638 6.52449C216.655 8.14344 214.326 10.3284 212.652 13.0764C210.977 15.8243 210.14 18.8857 210.14 22.2636C210.14 27.2635 211.991 31.4843 215.699 34.9261C219.407 38.371 223.876 40.0934 229.106 40.0934C232.598 40.0934 235.831 39.3022 238.805 37.7167C241.777 36.1342 244.093 33.9706 245.759 31.2196C247.424 28.4747 248.258 25.4224 248.258 22.0628C248.258 18.7244 247.424 15.7056 245.759 13.0064C244.093 10.3071 241.749 8.14344 238.726 6.52449C235.703 4.9025 232.497 4.08998 229.106 4.08998ZM228.908 0C235.724 0 241.426 2.12716 246.02 6.37842C250.611 10.6297 252.907 15.8639 252.907 22.078C252.907 28.2373 250.617 33.4593 246.036 37.7471C241.454 42.0379 235.868 44.1833 229.274 44.1833C222.6 44.1833 216.968 42.0471 212.378 37.7775C207.784 33.505 205.488 28.3408 205.488 22.2788C205.488 18.2375 206.536 14.4884 208.627 11.0375C210.718 7.58959 213.571 4.88728 217.182 2.93055C220.795 0.979893 224.704 0 228.908 0Z" fill="#0A17B7"/>
<path d="M259.616 1.0596H291.524V43.1249H287.027V5.06133H264.113V43.1249H259.616V1.0596Z" fill="#0A17B7"/>
<path d="M321.851 4.08998C318.52 4.08998 315.363 4.9025 312.383 6.52449C309.399 8.14344 307.071 10.3284 305.396 13.0764C303.719 15.8243 302.882 18.8857 302.882 22.2636C302.882 27.2635 304.736 31.4843 308.444 34.9261C312.152 38.371 316.621 40.0934 321.851 40.0934C325.343 40.0934 328.576 39.3022 331.547 37.7167C334.521 36.1342 336.838 33.9706 338.503 31.2196C340.168 28.4747 341.003 25.4224 341.003 22.0628C341.003 18.7244 340.168 15.7056 338.503 13.0064C336.838 10.3071 334.494 8.14344 331.471 6.52449C328.448 4.9025 325.242 4.08998 321.851 4.08998ZM321.653 0C328.469 0 334.171 2.12716 338.765 6.37842C343.356 10.6297 345.651 15.8639 345.651 22.078C345.651 28.2373 343.362 33.4593 338.78 37.7471C334.195 42.0379 328.612 44.1833 322.018 44.1833C315.345 44.1833 309.713 42.0471 305.119 37.7775C300.528 33.505 298.233 28.3408 298.233 22.2788C298.233 18.2375 299.277 14.4884 301.372 11.0375C303.46 7.58959 306.313 4.88728 309.926 2.93055C313.537 0.979893 317.446 0 321.653 0Z" fill="#0A17B7"/>
<path d="M350.372 43.1244L356.813 1.05906H357.547L375.84 35.5744L393.957 1.05906H394.679L401.157 43.1244H396.746L392.301 13.0399L376.388 43.1244H375.238L359.136 12.8117L354.716 43.1244H350.372Z" fill="#0A17B7"/>
<path d="M429.371 4.08998C426.04 4.08998 422.883 4.9025 419.903 6.52449C416.919 8.14344 414.591 10.3284 412.916 13.0764C411.239 15.8243 410.402 18.8857 410.402 22.2636C410.402 27.2635 412.256 31.4843 415.964 34.9261C419.672 38.371 424.141 40.0934 429.371 40.0934C432.863 40.0934 436.096 39.3022 439.067 37.7167C442.041 36.1342 444.358 33.9706 446.023 31.2196C447.688 28.4747 448.523 25.4224 448.523 22.0628C448.523 18.7244 447.688 15.7056 446.023 13.0064C444.358 10.3071 442.014 8.14344 438.991 6.52449C435.968 4.9025 432.762 4.08998 429.371 4.08998ZM429.173 0C435.989 0 441.691 2.12716 446.285 6.37842C450.876 10.6297 453.171 15.8639 453.171 22.078C453.171 28.2373 450.882 33.4593 446.3 37.7471C441.715 42.0379 436.132 44.1833 429.538 44.1833C422.865 44.1833 417.233 42.0471 412.639 37.7775C408.048 33.505 405.753 28.3408 405.753 22.2788C405.753 18.2375 406.797 14.4884 408.892 11.0375C410.98 7.58959 413.833 4.88728 417.446 2.93055C421.057 0.979893 424.966 0 429.173 0Z" fill="#0A17B7"/>
<path d="M464.375 43.1244H459.879V1.05906H482.425V5.17643H464.375V43.1244Z" fill="#0A17B7"/>
<path d="M504.443 9.99701L496.732 25.2218H512.118L504.443 9.99701ZM505.013 1.0593L526 43.1246H521.141L514.063 29.2844H494.674L487.666 43.1246H482.649L503.91 1.0593H505.013Z" fill="#0A17B7"/>
<path d="M192.703 100.82H187.808L172.894 68.3219L157.736 100.82H152.841L172.419 58.7543H173.399L192.703 100.82Z" fill="#0A17B7"/>
<path d="M197.363 58.7561H201.86V100.821H197.363V58.7561Z" fill="#0A17B7"/>
<path d="M209.913 58.7546H214.504V74.5393L232.49 58.7546H238.533L216.918 77.6281L240.216 100.82H234.225L214.504 81.2251V100.82H209.913V58.7546Z" fill="#0A17B7"/>
<path d="M262.494 67.692L254.782 82.9168H270.168L262.494 67.692ZM263.063 58.7543L284.047 100.82H279.189L272.114 86.9794H252.724L245.716 100.82H240.696L261.961 58.7543H263.063Z" fill="#0A17B7"/>
<path d="M293.235 62.8725V77.1418L300.852 77.227C303.933 77.227 306.186 76.9653 307.614 76.4418C309.042 75.9184 310.165 75.0724 310.981 73.9008C311.797 72.7322 312.205 71.4237 312.205 69.9782C312.205 68.5692 311.797 67.282 310.981 66.1104C310.165 64.9418 309.087 64.108 307.751 63.615C306.417 63.119 304.229 62.8725 301.19 62.8725H293.235ZM288.739 58.7551H297.701C302.843 58.7551 306.308 58.9651 308.104 59.385C310.673 59.9754 312.774 61.1896 314.406 63.0307C316.037 64.8688 316.853 67.1816 316.853 69.963C316.853 72.7657 316.059 75.0785 314.467 76.8983C312.877 78.7181 310.682 79.9445 307.891 80.5744C305.851 81.0309 302.037 81.2591 296.447 81.2591H293.235V100.82H288.739V58.7551Z" fill="#0A17B7"/>
<path d="M336.673 62.8725C333.589 62.8725 331.382 63.122 330.054 63.615C328.727 64.111 327.652 64.9357 326.836 66.0891C326.021 67.2424 325.613 68.5236 325.613 69.9356C325.613 71.3841 326.015 72.6957 326.821 73.8673C327.628 75.0389 328.751 75.8941 330.191 76.4266C331.631 76.9622 333.854 77.227 336.858 77.227L344.609 77.1691V62.8725H336.673ZM349.109 100.82H344.609V81.2865H342.067L325.884 100.82H320.319L336.502 81.2865C332.73 81.2683 329.771 80.8148 327.631 79.9293C325.488 79.0407 323.841 77.7291 322.69 75.9915C321.536 74.2538 320.961 72.2393 320.961 69.9508C320.961 67.1998 321.798 64.887 323.469 63.0064C325.141 61.1257 327.314 59.8993 329.987 59.3272C331.759 58.9468 335.144 58.7551 340.143 58.7551H349.109V100.82Z" fill="#0A17B7"/>
<path d="M355.875 100.82L362.317 58.7543H363.051L381.344 93.2695L399.461 58.7543H400.183L406.661 100.82H402.25L397.805 70.7351L381.892 100.82H380.742L364.64 70.5069L360.22 100.82H355.875Z" fill="#0A17B7"/>
<path d="M161.606 133.436C162.038 133.046 162.254 132.517 162.254 131.85C162.254 131.184 162.038 130.651 161.606 130.255C161.173 129.857 160.564 129.659 159.785 129.659H156.165V134.023H159.785C160.564 134.023 161.173 133.828 161.606 133.436ZM156.165 123.935V127.721H158.656C159.353 127.721 159.889 127.547 160.263 127.2C160.641 126.853 160.829 126.388 160.829 125.806C160.829 125.225 160.641 124.769 160.263 124.434C159.889 124.099 159.353 123.935 158.656 123.935H156.165ZM163.84 129.68C164.303 130.304 164.534 131.05 164.534 131.914C164.534 132.696 164.345 133.399 163.968 134.023C163.594 134.647 163.061 135.131 162.373 135.477C161.685 135.827 160.884 136.001 159.977 136.001H153.952V121.954H158.869C159.706 121.954 160.446 122.115 161.085 122.435C161.721 122.751 162.217 123.195 162.565 123.761C162.912 124.33 163.085 124.976 163.085 125.7C163.085 126.239 162.985 126.732 162.787 127.179C162.589 127.626 162.297 128.013 161.916 128.338C162.738 128.609 163.38 129.056 163.84 129.68Z" fill="#F2CB48"/>
<path d="M191.944 129.861C192.333 130.448 192.528 131.127 192.528 131.894C192.528 132.746 192.309 133.497 191.871 134.149C191.429 134.803 190.814 135.314 190.029 135.682C189.24 136.051 188.342 136.233 187.335 136.233C186.129 136.233 185.054 135.95 184.108 135.384C183.164 134.815 182.43 134.051 181.906 133.087L183.502 131.915C184.509 133.418 185.782 134.17 187.313 134.17C188.15 134.17 188.851 133.951 189.411 133.51C189.971 133.071 190.251 132.496 190.251 131.787C190.251 131.148 190.017 130.634 189.548 130.244C189.079 129.855 188.385 129.657 187.462 129.657H185.736V127.721H187.398C188.093 127.721 188.628 127.545 189.006 127.189C189.38 126.836 189.569 126.373 189.569 125.807C189.569 125.196 189.374 124.709 188.985 124.338C188.595 123.969 188.029 123.784 187.292 123.784C185.971 123.784 184.914 124.417 184.12 125.68L182.521 124.508C183.005 123.628 183.657 122.944 184.482 122.454C185.304 121.964 186.263 121.72 187.356 121.72C188.732 121.72 189.825 122.08 190.635 122.795C191.444 123.513 191.849 124.459 191.849 125.637C191.849 126.218 191.712 126.754 191.444 127.244C191.173 127.734 190.799 128.148 190.315 128.488C191.009 128.814 191.554 129.273 191.944 129.861Z" fill="#F2CB48"/>
<path d="M209.156 133.5C209.924 133.053 210.526 132.432 210.965 131.638C211.406 130.844 211.625 129.949 211.625 128.957C211.625 127.992 211.406 127.113 210.965 126.318C210.526 125.521 209.924 124.903 209.156 124.456C208.389 124.009 207.531 123.783 206.581 123.783C205.616 123.783 204.748 124.009 203.984 124.456C203.217 124.903 202.617 125.518 202.185 126.306C201.753 127.094 201.533 127.977 201.533 128.957C201.533 129.949 201.753 130.844 202.185 131.638C202.617 132.432 203.217 133.053 203.984 133.5C204.748 133.948 205.616 134.17 206.581 134.17C207.531 134.17 208.389 133.948 209.156 133.5ZM202.846 135.277C201.716 134.638 200.824 133.765 200.173 132.66C199.518 131.553 199.192 130.326 199.192 128.978C199.192 127.63 199.524 126.404 200.182 125.296C200.842 124.188 201.734 123.315 202.855 122.679C203.975 122.04 205.211 121.72 206.56 121.72C207.893 121.72 209.129 122.04 210.265 122.679C211.4 123.315 212.295 124.188 212.956 125.296C213.616 126.404 213.945 127.63 213.945 128.978C213.945 130.326 213.616 131.553 212.956 132.66C212.295 133.765 211.4 134.638 210.265 135.277C209.129 135.916 207.893 136.236 206.56 136.236C205.211 136.236 203.972 135.916 202.846 135.277Z" fill="#F2CB48"/>
<path d="M221.484 121.955H223.739V127.551H230.808V121.955H233.064V135.999H230.808V129.572H223.739V135.999H221.484V121.955Z" fill="#F2CB48"/>
<path d="M241.454 121.956H243.71V136H241.454V121.956Z" fill="#F2CB48"/>
<path d="M268.066 134.022C268.86 134.022 269.481 133.815 269.929 133.404C270.376 132.993 270.599 132.448 270.599 131.767C270.599 131.085 270.376 130.537 269.929 130.127C269.481 129.716 268.86 129.509 268.066 129.509H265.128V134.022H268.066ZM262.872 121.956H271.728V123.976H265.128V127.573H268.151C269.086 127.573 269.914 127.75 270.632 128.106C271.347 128.459 271.902 128.952 272.291 129.585C272.681 130.215 272.879 130.942 272.879 131.767C272.879 132.588 272.681 133.322 272.291 133.97C271.902 134.615 271.347 135.114 270.632 135.467C269.914 135.823 269.086 136 268.151 136H262.872V121.956Z" fill="#F2CB48"/>
<path d="M289.398 133.5C290.165 133.053 290.768 132.432 291.206 131.638C291.648 130.844 291.867 129.949 291.867 128.957C291.867 127.992 291.648 127.113 291.206 126.318C290.768 125.521 290.165 124.903 289.398 124.456C288.631 124.009 287.772 123.783 286.82 123.783C285.855 123.783 284.99 124.009 284.223 124.456C283.459 124.903 282.859 125.518 282.427 126.306C281.991 127.094 281.775 127.977 281.775 128.957C281.775 129.949 281.991 130.844 282.427 131.638C282.859 132.432 283.459 133.053 284.223 133.5C284.99 133.948 285.855 134.17 286.82 134.17C287.772 134.17 288.631 133.948 289.398 133.5ZM283.084 135.277C281.958 134.638 281.066 133.765 280.414 132.66C279.76 131.553 279.434 130.326 279.434 128.978C279.434 127.63 279.763 126.404 280.423 125.296C281.084 124.188 281.973 123.315 283.096 122.679C284.217 122.04 285.453 121.72 286.801 121.72C288.135 121.72 289.368 122.04 290.506 122.679C291.639 123.315 292.537 124.188 293.197 125.296C293.858 126.404 294.187 127.63 294.187 128.978C294.187 130.326 293.858 131.553 293.197 132.66C292.537 133.765 291.639 134.638 290.506 135.277C289.368 135.916 288.135 136.236 286.801 136.236C285.453 136.236 284.214 135.916 283.084 135.277Z" fill="#F2CB48"/>
<path d="M305.291 119.635C304.658 118.983 304.345 118.122 304.345 117.06V116.634H306.174V117.124C306.174 117.705 306.314 118.162 306.591 118.497C306.865 118.828 307.261 118.996 307.773 118.996C308.284 118.996 308.68 118.834 308.963 118.506C309.249 118.18 309.389 117.721 309.389 117.124V116.634H311.243V117.06C311.243 118.122 310.923 118.983 310.284 119.635C309.645 120.289 308.808 120.615 307.773 120.615C306.75 120.615 305.925 120.289 305.291 119.635ZM313.478 121.722V136.001H311.222V126.19L302.512 136.235H301.727V121.957H303.982V131.743L312.689 121.722H313.478Z" fill="#F2CB48"/>
<path d="M330.956 133.5C331.724 133.053 332.326 132.432 332.765 131.638C333.206 130.844 333.425 129.949 333.425 128.957C333.425 127.992 333.206 127.113 332.765 126.318C332.326 125.521 331.724 124.903 330.956 124.456C330.189 124.009 329.331 123.783 328.378 123.783C327.413 123.783 326.548 124.009 325.781 124.456C325.017 124.903 324.417 125.518 323.985 126.306C323.55 127.094 323.334 127.977 323.334 128.957C323.334 129.949 323.55 130.844 323.985 131.638C324.417 132.432 325.017 133.053 325.781 133.5C326.548 133.948 327.413 134.17 328.378 134.17C329.331 134.17 330.189 133.948 330.956 133.5ZM324.643 135.277C323.516 134.638 322.624 133.765 321.973 132.66C321.318 131.553 320.992 130.326 320.992 128.978C320.992 127.63 321.321 126.404 321.982 125.296C322.642 124.188 323.531 123.315 324.655 122.679C325.775 122.04 327.011 121.72 328.36 121.72C329.693 121.72 330.926 122.04 332.065 122.679C333.197 123.315 334.095 124.188 334.756 125.296C335.416 126.404 335.745 127.63 335.745 128.978C335.745 130.326 335.416 131.553 334.756 132.66C334.095 133.765 333.197 134.638 332.065 135.277C330.926 135.916 329.693 136.236 328.36 136.236C327.011 136.236 325.772 135.916 324.643 135.277Z" fill="#F2CB48"/>
<path d="M350.936 133.436C351.368 133.046 351.585 132.517 351.585 131.85C351.585 131.184 351.368 130.651 350.936 130.255C350.504 129.857 349.895 129.659 349.116 129.659H345.496V134.023H349.116C349.895 134.023 350.504 133.828 350.936 133.436ZM345.496 123.935V127.721H347.989C348.683 127.721 349.219 127.547 349.594 127.2C349.971 126.853 350.16 126.388 350.16 125.806C350.16 125.225 349.971 124.769 349.594 124.434C349.219 124.099 348.683 123.935 347.989 123.935H345.496ZM353.171 129.68C353.633 130.304 353.865 131.05 353.865 131.914C353.865 132.696 353.676 133.399 353.299 134.023C352.924 134.647 352.391 135.131 351.703 135.477C351.012 135.827 350.215 136.001 349.307 136.001H343.283V121.954H348.199C349.036 121.954 349.776 122.115 350.416 122.435C351.052 122.751 351.548 123.195 351.895 123.761C352.242 124.33 352.416 124.976 352.416 125.7C352.416 126.239 352.315 126.732 352.117 127.179C351.919 127.626 351.627 128.013 351.247 128.338C352.069 128.609 352.711 129.056 353.171 129.68Z" fill="#F2CB48"/>
<path d="M373.024 121.721V136H370.768V126.188L362.058 136.234H361.272V121.955H363.528V131.745L372.235 121.721H373.024Z" fill="#F2CB48"/>
<path d="M389.48 136L386.074 130.763L382.689 136H380.092L384.838 128.828L380.39 121.956H382.987L386.095 126.914L389.161 121.956H391.736L387.371 128.828L392.056 136H389.48Z" fill="#F2CB48"/>
<path d="M412.026 133.979H418.392V123.976H413.624C413.609 128.985 413.076 132.32 412.026 133.979ZM422.438 133.979V139H420.182V135.999H410.708V139H408.449V133.979H409.557C410.239 133.367 410.738 132.262 411.058 130.659C411.378 129.055 411.536 126.821 411.536 123.955V121.955H420.648V133.979H422.438Z" fill="#F2CB48"/>
<path d="M429.612 121.956H431.868V136H429.612V121.956Z" fill="#F2CB48"/>
<path d="M443.799 119.635C443.166 118.983 442.852 118.122 442.852 117.06V116.634H444.682V117.124C444.682 117.705 444.822 118.162 445.099 118.497C445.373 118.828 445.769 118.996 446.28 118.996C446.792 118.996 447.187 118.834 447.47 118.506C447.757 118.18 447.897 117.721 447.897 117.124V116.634H449.751V117.06C449.751 118.122 449.431 118.983 448.792 119.635C448.152 120.289 447.315 120.615 446.28 120.615C445.257 120.615 444.432 120.289 443.799 119.635ZM451.985 121.722V136.001H449.729V126.19L441.02 136.235H440.234V121.957H442.49V131.743L451.197 121.722H451.985Z" fill="#F2CB48"/>
<path d="M68.285 22.3153C69.2714 20.6812 70.136 19.1718 71.0706 17.705C74.9429 11.6217 79.4912 6.16844 86.283 3.21355C107.085 -5.83066 131.458 5.69675 135.933 28.8642C137.449 36.7185 136.262 44.4329 134.027 52.0133C130.879 62.6826 125.433 72.1955 119.113 81.2518C110.129 94.1213 99.5959 105.679 88.7155 116.933C82.6177 123.235 76.4042 129.425 70.2303 135.654C68.8178 137.081 67.7644 137.078 66.3488 135.663C54.7469 124.069 43.1237 112.493 32.3529 100.107C23.8136 90.29 15.8344 80.062 9.57832 68.5985C5.24016 60.6467 1.9523 52.3116 0.585395 43.2917C-1.1864 31.5787 0.905054 20.8638 9.04253 11.8926C16.9456 3.18007 26.937 -0.453445 38.6455 0.289093C51.2125 1.0864 59.6605 7.99432 65.8983 18.3014C66.6776 19.5917 67.4387 20.8911 68.285 22.3153Z" fill="#F7981A"/>
<path d="M82.0436 22.315C83.0299 20.6809 83.8945 19.1715 84.8291 17.7047C88.7015 11.6214 93.2497 6.16814 100.042 3.21324C120.843 -5.83096 145.216 5.69644 149.691 28.8639C151.208 36.7182 150.02 44.4326 147.786 52.013C144.638 62.6823 139.192 72.1952 132.872 81.2515C123.888 94.121 113.354 105.679 102.474 116.932C96.3762 123.235 90.1628 129.424 83.9889 135.654C82.5763 137.081 81.523 137.078 80.1074 135.663C68.5055 124.069 56.8822 112.492 46.1114 100.107C37.5721 90.2897 29.5929 80.0617 23.3369 68.5982C18.9987 60.6464 15.7108 52.3113 14.3439 43.2914C12.5721 31.5784 14.6636 20.8634 22.8011 11.8923C30.7041 3.17976 40.6956 -0.453751 52.404 0.288788C64.971 1.08609 73.419 7.99402 79.6568 18.3011C80.4362 19.5914 81.1972 20.8908 82.0436 22.315Z" fill="#F2CB48"/>
<path d="M132.298 25.5849H122.468V15.7586C122.468 14.8578 121.728 14.1184 120.827 14.1184H113.426C112.525 14.1184 111.788 14.8578 111.788 15.7586V25.5849H101.955C101.054 25.5849 100.317 26.3213 100.317 27.2221V34.623C100.317 35.5238 101.054 36.2602 101.955 36.2602H111.788V46.0865C111.788 46.9873 112.525 47.7238 113.426 47.7238H120.827C121.728 47.7238 122.468 46.9873 122.468 46.0865V36.2602H132.298C133.199 36.2602 133.936 35.5238 133.936 34.623V27.2221C133.936 26.3213 133.199 25.5849 132.298 25.5849Z" fill="#0A17B7"/>
</svg>
