<svg width="73" height="73" viewBox="0 0 73 73" fill="none" xmlns="http://www.w3.org/2000/svg">
<path d="M38.7578 22.8583V27.8276L43.0613 25.343L45.3191 29.2537L41.0155 31.7383L45.3191 34.223L43.0613 38.1337L38.7578 35.649V40.6183H34.2422V35.6489L29.9385 38.1337L27.6807 34.223L31.9843 31.7383L27.6807 29.2537L29.9385 25.343L34.2422 27.8277V22.8583H38.7578Z" fill="#000827"/>
<path d="M60.207 40.7656C59.5836 40.7656 59.0781 41.2711 59.0781 41.8945V44.1523C59.0781 44.7758 59.5836 45.2812 60.207 45.2812H62.4648C63.0883 45.2812 63.5938 44.7758 63.5938 44.1523V41.8945C63.5938 41.2711 63.0883 40.7656 62.4648 40.7656H60.207Z" fill="#000827"/>
<path d="M59.0781 50.9258C59.0781 50.3023 59.5836 49.7969 60.207 49.7969H62.4648C63.0883 49.7969 63.5938 50.3023 63.5938 50.9258V53.1836C63.5938 53.8071 63.0883 54.3125 62.4648 54.3125H60.207C59.5836 54.3125 59.0781 53.8071 59.0781 53.1836V50.9258Z" fill="#000827"/>
<path d="M60.207 58.8281C59.5836 58.8281 59.0781 59.3336 59.0781 59.957V62.2148C59.0781 62.8383 59.5836 63.3438 60.207 63.3438H62.4648C63.0883 63.3438 63.5938 62.8383 63.5938 62.2148V59.957C63.5938 59.3336 63.0883 58.8281 62.4648 58.8281H60.207Z" fill="#000827"/>
<path d="M10.5352 40.7656C9.91168 40.7656 9.40625 41.2711 9.40625 41.8945V44.1523C9.40625 44.7758 9.91168 45.2812 10.5352 45.2812H12.793C13.4164 45.2812 13.9219 44.7758 13.9219 44.1523V41.8945C13.9219 41.2711 13.4164 40.7656 12.793 40.7656H10.5352Z" fill="#000827"/>
<path d="M10.5352 49.7969C9.91168 49.7969 9.40625 50.3023 9.40625 50.9258V53.1836C9.40625 53.8071 9.91168 54.3125 10.5352 54.3125H12.793C13.4164 54.3125 13.9219 53.8071 13.9219 53.1836V50.9258C13.9219 50.3023 13.4164 49.7969 12.793 49.7969H10.5352Z" fill="#000827"/>
<path d="M9.40625 59.957C9.40625 59.3336 9.91168 58.8281 10.5352 58.8281H12.793C13.4164 58.8281 13.9219 59.3336 13.9219 59.957V62.2148C13.9219 62.8383 13.4164 63.3438 12.793 63.3438H10.5352C9.91168 63.3438 9.40625 62.8383 9.40625 62.2148V59.957Z" fill="#000827"/>
<path d="M22.9531 4.64062C22.9531 2.14671 24.9748 0.125 27.4688 0.125H45.5312C48.0252 0.125 50.0469 2.14671 50.0469 4.64062V9.15625C52.5408 9.15625 54.5625 11.178 54.5625 13.6719V31.7344H68.1094C70.6033 31.7344 72.625 33.7561 72.625 36.25V67.8594C72.625 70.3533 70.6033 72.375 68.1094 72.375H4.89063C2.39672 72.375 0.375 70.3533 0.375 67.8594V36.25C0.375 33.7561 2.39671 31.7344 4.89062 31.7344H18.4375V13.6719C18.4375 11.178 20.4592 9.15625 22.9531 9.15625V4.64062ZM31.9844 67.8594H41.0156V54.3125H31.9844V67.8594ZM45.5312 67.8594H50.0469V13.6719L22.9531 13.6719V67.8594H27.4688V54.3125C27.4688 51.8186 29.4905 49.7969 31.9844 49.7969H41.0156C43.5095 49.7969 45.5312 51.8186 45.5312 54.3125V67.8594ZM45.5312 4.64062H27.4688V9.15625H45.5312V4.64062ZM54.5625 36.25V67.8594H68.1094V36.25H54.5625ZM18.4375 67.8594V36.25H4.89062V67.8594H18.4375Z" fill="#000827"/>
</svg>
